<svg class="img-fluid" id="outputsvg" xmlns="http://www.w3.org/2000/svg" style="transform: matrix(1, 0, 0, 1, 0, 0); transform-origin: 50% 50% 0px; cursor: move; transition: none 0s ease 0s;" width="512" height="512" viewBox="0 0 5120 5120">
<g id="l45nzcNStiMNlFDTiWkQbCe" fill="#ffffff" style="transform: none;"><g style="transform: none;">
<path id="p1HHMzZhAb" d="M2485 4773 c-497 -212 -1166 -645 -1875 -1214 -419 -336 -460 -378 -439 -454 13 -47 43 -66 224 -139 1084 -441 1764 -731 2112 -902 226 -111 259 -120 306 -84 44 35 47 63 34 348 l-12 262 57 0 c157 0 440 -57 657 -131 183 -64 641 -298 641 -328 0 -8 -270 -188 -353 -235 -87 -50 -84 -6 -54 -728 36 -841 32 -795 72 -835 27 -27 41 -33 77 -33 37 0 65 12 169 73 457 267 750 582 830 896 35 134 23 319 -27 436 -13 32 -24 160 -55 635 -36 555 -40 601 -65 680 -120 388 -468 711 -992 919 -271 108 -656 203 -958 236 l-61 7 -12 277 c-14 289 -18 314 -63 345 -39 27 -95 19 -213 -31z"></path></g></g></svg>